# xmcd
# 
# Track frame offsets:
#     150
#     15102
#     34600
#     53977
#     78172
#     93285
#     113482
#     135735
#     151637
#     175907
#     184867
#     207167
#     224607
#     239735
#     266235
# 
# Disc length: 4440
# 
# Revision: 54
# Processed by: cddbd v1.5.2PL0 Copyright (c) Steve Scherf et al.
# Submitted via: fre:ac v1.0.31
# 
DISCID=c211560f
DTITLE=Radiohead - Hail To The Thief
DYEAR=2003
DGENRE=Rock
TTITLE0=2 and 2 =5 [The Lukewarm.]
TTITLE1=Sit Down. Stand Up. [Snakes and Ladders.]
TTITLE2=Sail to the Moon. [Brush The Cobwebs Out Of The Sky.]
TTITLE3=Backdrifts. [Honeymoon Is Over.]
TTITLE4=Go to Sleep. [Little Man Being Erased.]
TTITLE5=Where I End And You Begin. [The Sky Is Falling In.]
TTITLE6=We Suck Young Blood. [Your Time Is Up.]
TTITLE7=The Gloaming. [Softly Open Our Mouths In The Cold.]
TTITLE8=There There. [The Boney King Of Nowhere.]
TTITLE9=I Will. [No Man's Land.]
TTITLE10=A Punchup At A Wedding. [No No No No No No No No.]
TTITLE11=Myxomatosis. [Judge, Jury and Executioner.]
TTITLE12=Scatterbrain. [As Dead As Leaves.]
TTITLE13=A Wolf At The Door. [It Girl. Rag Doll.]
TTITLE14=BOYCOTT DRM
EXTD=YEAR: 2003
EXTT0=
EXTT1=
EXTT2=
EXTT3=
EXTT4=
EXTT5=
EXTT6=
EXTT7=
EXTT8=
EXTT9=
EXTT10=
EXTT11=
EXTT12=
EXTT13=
EXTT14=
PLAYORDER=
